<svg width="8" height="14" viewBox="0 0 8 14" fill="none" xmlns="http://www.w3.org/2000/svg">
<path d="M6.13599 7.00002L0.474654 12.818C0.428043 12.8649 0.391194 12.9206 0.366238 12.9818C0.341282 13.043 0.328714 13.1086 0.329264 13.1747C0.329813 13.2408 0.343468 13.3061 0.369437 13.3669C0.395407 13.4277 0.433176 13.4828 0.480559 13.5289C0.527943 13.575 0.583999 13.6112 0.645484 13.6355C0.706969 13.6598 0.772664 13.6717 0.838765 13.6704C0.904865 13.6692 0.970059 13.6548 1.03058 13.6282C1.09109 13.6016 1.14573 13.5632 1.19132 13.5154L7.19132 7.34869C7.28213 7.25535 7.33295 7.13025 7.33295 7.00002C7.33295 6.86979 7.28213 6.7447 7.19132 6.65136L1.19132 0.484689C1.14573 0.436813 1.09109 0.398457 1.03058 0.371836C0.970059 0.345215 0.904865 0.33086 0.838765 0.329602C0.772664 0.328343 0.706969 0.340206 0.645484 0.364504C0.583999 0.388802 0.527943 0.425052 0.480559 0.471156C0.433176 0.517262 0.395407 0.572307 0.369437 0.633104C0.343468 0.693902 0.329813 0.759248 0.329264 0.825357C0.328714 0.891467 0.341282 0.95703 0.366238 1.01825C0.391194 1.07947 0.428043 1.13514 0.474654 1.18202L6.13599 7.00002Z" fill="#515151"/>
</svg>
