<svg width="14" height="14" viewBox="0 0 14 14" fill="none" xmlns="http://www.w3.org/2000/svg">
<circle cx="6.51" cy="6.51" r="6.51" fill="#78C14E"/>
<path d="M7.37292 4.16398C7.60766 3.90966 7.72503 3.7825 7.84973 3.70833C8.15065 3.52936 8.52122 3.52379 8.82718 3.69365C8.95397 3.76405 9.07493 3.88763 9.31688 4.13479C9.55883 4.38195 9.67982 4.50553 9.74871 4.63506C9.915 4.9476 9.90955 5.32613 9.73435 5.63354C9.66174 5.76094 9.53725 5.88084 9.28831 6.12062L6.32614 8.97367C5.85436 9.42809 5.61846 9.6553 5.32364 9.77043C5.02882 9.8856 4.70471 9.87712 4.05649 9.86018L3.9683 9.85788C3.77096 9.85271 3.67229 9.85013 3.61493 9.78502C3.55758 9.71994 3.56541 9.61942 3.58107 9.41842L3.58957 9.30927C3.63365 8.74347 3.65569 8.4606 3.76617 8.2063C3.87665 7.952 4.06723 7.74555 4.44837 7.33259L7.37292 4.16398Z" stroke="white" stroke-width="0.63" stroke-linejoin="round"/>
<path d="M7.03375 4.20007L9.23875 6.40507" stroke="white" stroke-width="0.63" stroke-linejoin="round"/>
<path d="M7.35016 9.87012H9.87016" stroke="white" stroke-width="0.63" stroke-linecap="round" stroke-linejoin="round"/>
</svg>
