<svg width="8" height="14" viewBox="0 0 8 14" fill="none" xmlns="http://www.w3.org/2000/svg">
<path d="M6.09352 7L0.15255 13.1054C0.103637 13.1546 0.0649677 13.213 0.0387788 13.2772C0.0125898 13.3415 -0.000598467 13.4103 -2.20172e-05 13.4797C0.000553932 13.549 0.0148836 13.6176 0.0421359 13.6814C0.0693886 13.7452 0.109023 13.803 0.158747 13.8514C0.208471 13.8997 0.267296 13.9378 0.331818 13.9633C0.39634 13.9888 0.46528 14.0012 0.534646 13.9999C0.604011 13.9986 0.672426 13.9835 0.735931 13.9556C0.799436 13.9276 0.85677 13.8874 0.904615 13.8372L7.20098 7.36589C7.29629 7.26794 7.34961 7.13667 7.34961 7C7.34961 6.86334 7.29629 6.73207 7.20098 6.63411L0.904615 0.162844C0.85677 0.112604 0.799436 0.0723525 0.735931 0.0444167C0.672426 0.0164809 0.604011 0.00141711 0.534646 9.70757e-05C0.46528 -0.00122396 0.39634 0.0112248 0.331818 0.0367227C0.267296 0.0622205 0.208471 0.100261 0.158747 0.148643C0.109023 0.197026 0.0693886 0.25479 0.0421359 0.318591C0.0148836 0.382391 0.000553932 0.450965 -2.20172e-05 0.52034C-0.000598467 0.589715 0.0125898 0.658517 0.0387788 0.722762C0.0649677 0.787007 0.103637 0.845421 0.15255 0.894623L6.09352 7Z" fill="black"/>
</svg>
