<svg width="24" height="30" viewBox="0 0 24 30" fill="none" xmlns="http://www.w3.org/2000/svg">
<path d="M8 13.125H5.33333V16.0417H8V13.125ZM13.3333 13.125H10.6667V16.0417H13.3333V13.125ZM18.6667 13.125H16V16.0417H18.6667V13.125ZM21.3333 2.91667H20V0H17.3333V2.91667H6.66667V0H4V2.91667H2.66667C1.18667 2.91667 0.0133333 4.22917 0.0133333 5.83333L0 26.25C0 27.8542 1.18667 29.1667 2.66667 29.1667H21.3333C22.8 29.1667 24 27.8542 24 26.25V5.83333C24 4.22917 22.8 2.91667 21.3333 2.91667ZM21.3333 26.25H2.66667V10.2083H21.3333V26.25Z" fill="#838383"/>
</svg>
