<svg width="7" height="7" viewBox="0 0 7 7" fill="none" xmlns="http://www.w3.org/2000/svg">
<path d="M4.15954 0.918053C4.39664 0.661175 4.51519 0.532738 4.64115 0.45782C4.94509 0.277048 5.31938 0.271426 5.62841 0.44299C5.75648 0.514094 5.87865 0.638917 6.12303 0.888562C6.36742 1.13821 6.48962 1.26303 6.55921 1.39386C6.72717 1.70954 6.72166 2.09187 6.5447 2.40237C6.47136 2.53106 6.34562 2.65216 6.09418 2.89435L3.10224 5.77607C2.62572 6.23506 2.38745 6.46455 2.08967 6.58084C1.79189 6.69716 1.46452 6.6886 0.809787 6.67148L0.720707 6.66916C0.521386 6.66394 0.421723 6.66133 0.363792 6.59557C0.305857 6.52984 0.313767 6.42831 0.329586 6.22529L0.338176 6.11504C0.382697 5.54356 0.404956 5.25784 0.516549 5.00099C0.62814 4.74413 0.82063 4.53561 1.20561 4.11849L4.15954 0.918053Z" stroke="white" stroke-width="0.63" stroke-linejoin="round"/>
</svg>
