<svg width="14" height="16" viewBox="0 0 14 16" fill="none" xmlns="http://www.w3.org/2000/svg">
<path d="M0.781628 8.10001L1.31687 10.1002C1.94217 12.4347 2.25586 13.6025 2.96503 14.3593C3.52475 14.9564 4.24886 15.3743 5.04593 15.5602C6.05636 15.7963 7.22416 15.4836 9.55974 14.8583C11.8933 14.233 13.061 13.9203 13.8178 13.2112C13.8806 13.1518 13.9414 13.0911 14 13.029C13.6475 12.9972 13.297 12.9453 12.9503 12.8737C12.2297 12.7308 11.3735 12.501 10.361 12.2297L10.2503 12.1997L10.2244 12.1935C9.12286 11.8974 8.20249 11.651 7.46745 11.386C6.6941 11.1065 5.99218 10.7617 5.39482 10.2027C4.57314 9.43283 3.99815 8.43667 3.74252 7.34011C3.55617 6.54399 3.61 5.76339 3.75494 4.95484C3.89367 4.17941 4.14214 3.24974 4.4403 2.13681L4.99417 0.0724691L5.0128 0C3.02507 0.535238 1.97841 0.852033 1.28063 1.50529C0.682751 2.06543 0.264457 2.79033 0.0786743 3.58827C-0.157369 4.59767 0.155285 5.76546 0.781628 8.10001Z" fill="#515151"/>
</svg>
